<svg width="130" height="130" viewBox="0 0 130 130" fill="none" xmlns="http://www.w3.org/2000/svg">
    <circle cx="65" cy="65" r="65" fill="url(#paint0_linear_1051_7017)"/>
    <path fill-rule="evenodd" clip-rule="evenodd"
          d="M46.3891 38.6109C44.2412 36.463 40.7588 36.463 38.6109 38.6109C36.463 40.7588 36.463 44.2412 38.6109 46.3891L57.4718 65.25L38.6109 84.1109C36.463 86.2588 36.463 89.7412 38.6109 91.8891C40.7588 94.037 44.2412 94.037 46.3891 91.8891L65.25 73.0282L84.1109 91.8891C86.2588 94.037 89.7412 94.037 91.8891 91.8891C94.037 89.7412 94.037 86.2588 91.8891 84.1109L73.0282 65.25L91.8891 46.3891C94.037 44.2412 94.037 40.7588 91.8891 38.6109C89.7412 36.463 86.2588 36.463 84.1109 38.6109L65.25 57.4718L46.3891 38.6109Z"
          fill="white"/>
    <defs>
        <linearGradient id="paint0_linear_1051_7017" x1="105.5" y1="17.5" x2="10" y2="117.5"
                        gradientUnits="userSpaceOnUse">
            <stop stop-color="#C3685E"/>
            <stop offset="1" stop-color="#B6473B"/>
        </linearGradient>
    </defs>
</svg>
