<svg width="88" height="44" viewBox="0 0 88 44" fill="none" xmlns="http://www.w3.org/2000/svg">
    <rect x="1" y="1" width="86" height="42" rx="21" stroke="url(#paint0_linear_682_3339)" stroke-width="2"/>
    <path d="M32.0391 26.4844V28H25.0391V16.7266H26.7891V26.4844H32.0391ZM36.9841 28.1562C34.6325 28.1562 33.0856 26.5391 33.0856 23.8906C33.0856 21.25 34.6403 19.6328 36.9841 19.6328C39.3278 19.6328 40.8825 21.25 40.8825 23.8906C40.8825 26.5391 39.3356 28.1562 36.9841 28.1562ZM36.9841 26.7656C38.3122 26.7656 39.1637 25.7188 39.1637 23.8906C39.1637 22.0703 38.3044 21.0234 36.9841 21.0234C35.6637 21.0234 34.8044 22.0703 34.8044 23.8906C34.8044 25.7188 35.6637 26.7656 36.9841 26.7656ZM46.0072 26.6328C47.3275 26.6328 48.1947 25.5625 48.1947 23.8672C48.1947 22.1797 47.3275 21.0703 46.0072 21.0703C44.7103 21.0703 43.8666 22.1562 43.8666 23.8672C43.8666 25.5859 44.7103 26.6328 46.0072 26.6328ZM46.0228 31.0938C44.0853 31.0938 42.6478 30.0625 42.4369 28.6406H44.1322C44.3744 29.3281 45.1244 29.7812 46.0853 29.7812C47.4056 29.7812 48.1869 29.0312 48.1869 27.9062V26.5547H48.1556C47.6947 27.4453 46.7259 28.0312 45.5541 28.0312C43.4916 28.0312 42.14 26.4219 42.14 23.8594C42.14 21.2734 43.4837 19.6484 45.5931 19.6484C46.7572 19.6484 47.7103 20.2344 48.2103 21.1875H48.2416V19.7812H49.8822V27.8516C49.8822 29.8125 48.3666 31.0938 46.0228 31.0938ZM51.9287 28V19.7812H53.6162V28H51.9287ZM52.7725 18.4531C52.2334 18.4531 51.7959 18.0156 51.7959 17.4844C51.7959 16.9453 52.2334 16.5156 52.7725 16.5156C53.3116 16.5156 53.7412 16.9453 53.7412 17.4844C53.7412 18.0156 53.3116 18.4531 52.7725 18.4531ZM55.6628 28V19.7812H57.2722V21.1562H57.3113C57.7566 20.2188 58.6316 19.6406 59.8972 19.6406C61.7097 19.6406 62.7488 20.7969 62.7488 22.6797V28H61.0534V23.0078C61.0534 21.7734 60.4753 21.0938 59.3034 21.0938C58.1159 21.0938 57.3503 21.9375 57.3503 23.2109V28H55.6628Z"
          fill="url(#paint1_linear_682_3339)"/>
    <defs>
        <linearGradient id="paint0_linear_682_3339" x1="-38.094" y1="69" x2="133.377" y2="26.4814"
                        gradientUnits="userSpaceOnUse">
            <stop stop-color="#B6473B"/>
            <stop offset="0.364583" stop-color="#C3685E"/>
            <stop offset="0.619792" stop-color="#E27B30"/>
            <stop offset="0.895833" stop-color="#DFC74C"/>
        </linearGradient>
        <linearGradient id="paint1_linear_682_3339" x1="4" y1="50" x2="97.1851" y2="40.6138"
                        gradientUnits="userSpaceOnUse">
            <stop stop-color="#B6473B"/>
            <stop offset="0.364583" stop-color="#C3685E"/>
            <stop offset="0.619792" stop-color="#E27B30"/>
            <stop offset="0.895833" stop-color="#DFC74C"/>
        </linearGradient>
    </defs>
</svg>
