<svg width="140" height="47" viewBox="0 0 140 47" fill="none" xmlns="http://www.w3.org/2000/svg">
    <path d="M36.4559 18.1418L30.1606 6.29307L22.7313 6.81007L10.4253 3.75977L3.2666 14.6732L7.13994 21.4365L14.2333 20.0641L18.3539 23.1661L22.4699 43.0988L29.5493 42.1353L34.4259 26.7804L40.7493 16.948L36.4559 18.1418Z"
          fill="white"/>
    <path d="M60.5591 31.3595H56.7324V18.0961H60.5591V20.1782C61.1844 19.304 61.8564 18.6648 62.5658 18.2606C63.2798 17.8564 64.0871 17.6543 64.9878 17.6543C66.0798 17.6543 66.9664 17.8799 67.6524 18.3311C68.3384 18.7823 68.8238 19.4638 69.1084 20.3709C69.7151 19.4685 70.4104 18.7917 71.1804 18.3358C71.9504 17.8799 72.8044 17.6543 73.7238 17.6543C74.6431 17.6543 75.4458 17.8282 76.0944 18.176C76.7431 18.5238 77.2471 19.0455 77.6064 19.7364C77.7931 20.1171 77.9284 20.5448 78.0078 21.0195C78.0871 21.4989 78.1291 22.2227 78.1291 23.1956V31.3595H74.3024V24.803C74.3024 23.1909 74.1391 22.1193 73.8124 21.5835C73.4858 21.0524 72.9164 20.7845 72.0998 20.7845C71.1151 20.7845 70.4011 21.1558 69.9578 21.8937C69.5144 22.6316 69.2951 23.8395 69.2951 25.5174V31.3595H65.4684V24.803C65.4684 23.2426 65.3144 22.1898 65.0111 21.6399C64.7078 21.09 64.1851 20.8174 63.4384 20.8174C62.4258 20.8174 61.6931 21.1887 61.2358 21.9313C60.7784 22.6739 60.5498 23.8724 60.5498 25.5221V31.3642L60.5591 31.3595Z"
          fill="#171515"/>
    <path d="M81.5918 12.6481C81.5918 12.0371 81.8111 11.506 82.2498 11.0689C82.6885 10.6271 83.2111 10.4062 83.8225 10.4062C84.4338 10.4062 84.9705 10.6271 85.4138 11.0595C85.8571 11.4966 86.0765 12.0277 86.0765 12.6481C86.0765 13.2685 85.8525 13.7996 85.4138 14.2414C84.9751 14.6832 84.4431 14.9041 83.8225 14.9041C83.2018 14.9041 82.6885 14.6785 82.2498 14.2273C81.8111 13.7761 81.5918 13.2497 81.5918 12.6434V12.6481ZM81.9278 31.3588V18.0954H85.7405V31.3588H81.9278Z"
          fill="#171515"/>
    <path d="M89.6182 31.3583V18.0949H93.3655V20.177C94.0562 19.3122 94.7935 18.673 95.5868 18.2641C96.3802 17.8552 97.2575 17.6484 98.2235 17.6484C99.2455 17.6484 100.099 17.8223 100.795 18.1701C101.49 18.5179 102.036 19.049 102.437 19.7587C102.633 20.13 102.773 20.5436 102.862 21.0089C102.946 21.4742 102.988 22.2027 102.988 23.1897V31.3536H99.1615V24.7971C99.1615 23.1662 98.9748 22.0899 98.5968 21.5682C98.2188 21.0465 97.5748 20.7833 96.6648 20.7833C96.1375 20.7833 95.6522 20.8914 95.2088 21.1123C94.7655 21.3332 94.3968 21.6481 94.1028 22.0523C93.8695 22.3672 93.7015 22.7291 93.5988 23.1333C93.4962 23.5375 93.4448 24.1579 93.4448 24.9851V31.3536H89.6182V31.3583Z"
          fill="#171515"/>
    <path d="M119.807 31.3583H116.102L116.158 29.4501C115.64 30.2867 115.014 30.9024 114.286 31.2972C113.558 31.6873 112.672 31.8847 111.622 31.8847C109.876 31.8847 108.472 31.2314 107.398 29.9248C106.33 28.6182 105.793 26.8933 105.793 24.7454C105.793 22.5975 106.32 20.7692 107.37 19.519C108.42 18.2688 109.881 17.6484 111.752 17.6484C112.728 17.6484 113.586 17.8693 114.324 18.3111C115.061 18.7529 115.682 19.4109 116.181 20.2851V18.0949H119.807V31.3583ZM116.316 24.7078C116.316 23.5187 116.018 22.5787 115.425 21.8831C114.828 21.1875 114.025 20.8444 113.017 20.8444C112.009 20.8444 111.164 21.1875 110.567 21.8784C109.97 22.5693 109.676 23.514 109.676 24.7125C109.676 25.911 109.97 26.8416 110.553 27.509C111.141 28.1764 111.953 28.5101 112.989 28.5101C114.025 28.5101 114.865 28.1764 115.444 27.509C116.027 26.8416 116.316 25.911 116.316 24.7125V24.7078Z"
          fill="#171515"/>
    <path d="M123.405 31.3588V10.4062H127.148V17.8557C127.148 18.2693 127.134 18.6829 127.106 19.0918C127.078 19.5007 127.04 19.9002 126.984 20.2903C127.773 19.3644 128.562 18.6923 129.355 18.274C130.148 17.8604 131.03 17.6536 132.006 17.6536C132.981 17.6536 133.886 17.8275 134.591 18.18C135.296 18.5325 135.837 19.0589 136.22 19.7639C136.416 20.1352 136.556 20.5488 136.644 21.0141C136.728 21.4794 136.77 22.2079 136.77 23.1949V31.3588H132.944V24.8023C132.944 23.1714 132.757 22.0951 132.379 21.5734C132.001 21.0517 131.357 20.7885 130.447 20.7885C129.92 20.7885 129.434 20.8966 128.991 21.1175C128.548 21.3384 128.179 21.6533 127.885 22.0575C127.652 22.3724 127.484 22.7343 127.381 23.1385C127.278 23.5427 127.227 24.1631 127.227 24.9903V31.3588H123.4H123.405Z"
          fill="#171515"/>
    <path d="M34.4257 26.7812L29.5491 42.1361L22.4697 43.0996L34.4257 26.7812Z" fill="#E27B30"/>
    <path d="M22.4695 43.0987L18.3535 23.166L34.4255 26.7803L22.4695 43.0987Z" fill="#DFC74C"/>
    <path d="M40.7488 16.9473L34.4255 26.7797L18.3535 23.1654L40.7488 16.9473Z" fill="#26367E"/>
    <path d="M36.4561 18.1417L30.1608 6.29297L22.7314 6.80997L36.4561 18.1417Z" fill="#3F8147"/>
    <path opacity="0.78" d="M14.2334 20.0646L18.3541 23.1666L36.4561 18.1423L22.7314 6.81055L14.2334 20.0646Z"
          fill="#3F8147"/>
    <path opacity="0.82" d="M10.4253 3.75977L14.2333 20.0641L7.13994 21.4365L3.2666 14.6732L10.4253 3.75977Z"
          fill="#B6473B"/>
    <path d="M22.7308 6.81007L10.4248 3.75977L14.2328 20.0641L22.7308 6.81007Z" fill="#B6473B"/>
</svg>
